<svg width="10" height="11" viewBox="0 0 10 11" fill="none" xmlns="http://www.w3.org/2000/svg">
<path d="M5 6.5C5.09889 6.5 5.19556 6.47068 5.27779 6.41573C5.36001 6.36079 5.4241 6.2827 5.46194 6.19134C5.49978 6.09998 5.50969 5.99945 5.49039 5.90245C5.4711 5.80546 5.42348 5.71637 5.35355 5.64645C5.28363 5.57652 5.19454 5.5289 5.09755 5.50961C5.00055 5.49031 4.90002 5.50022 4.80866 5.53806C4.7173 5.5759 4.63921 5.63999 4.58427 5.72221C4.52932 5.80444 4.5 5.90111 4.5 6C4.5 6.13261 4.55268 6.25979 4.64645 6.35355C4.74021 6.44732 4.86739 6.5 5 6.5ZM7.5 6.5C7.59889 6.5 7.69556 6.47068 7.77779 6.41573C7.86001 6.36079 7.9241 6.2827 7.96194 6.19134C7.99978 6.09998 8.00969 5.99945 7.99039 5.90245C7.9711 5.80546 7.92348 5.71637 7.85355 5.64645C7.78363 5.57652 7.69454 5.5289 7.59755 5.50961C7.50056 5.49031 7.40002 5.50022 7.30866 5.53806C7.2173 5.5759 7.13921 5.63999 7.08426 5.72221C7.02932 5.80444 7 5.90111 7 6C7 6.13261 7.05268 6.25979 7.14645 6.35355C7.24021 6.44732 7.36739 6.5 7.5 6.5ZM5 8.5C5.09889 8.5 5.19556 8.47068 5.27779 8.41574C5.36001 8.36079 5.4241 8.2827 5.46194 8.19134C5.49978 8.09998 5.50969 7.99944 5.49039 7.90245C5.4711 7.80546 5.42348 7.71637 5.35355 7.64645C5.28363 7.57652 5.19454 7.5289 5.09755 7.50961C5.00055 7.49031 4.90002 7.50022 4.80866 7.53806C4.7173 7.5759 4.63921 7.63999 4.58427 7.72221C4.52932 7.80444 4.5 7.90111 4.5 8C4.5 8.13261 4.55268 8.25979 4.64645 8.35355C4.74021 8.44732 4.86739 8.5 5 8.5ZM7.5 8.5C7.59889 8.5 7.69556 8.47068 7.77779 8.41574C7.86001 8.36079 7.9241 8.2827 7.96194 8.19134C7.99978 8.09998 8.00969 7.99944 7.99039 7.90245C7.9711 7.80546 7.92348 7.71637 7.85355 7.64645C7.78363 7.57652 7.69454 7.5289 7.59755 7.50961C7.50056 7.49031 7.40002 7.50022 7.30866 7.53806C7.2173 7.5759 7.13921 7.63999 7.08426 7.72221C7.02932 7.80444 7 7.90111 7 8C7 8.13261 7.05268 8.25979 7.14645 8.35355C7.24021 8.44732 7.36739 8.5 7.5 8.5ZM2.5 6.5C2.59889 6.5 2.69556 6.47068 2.77779 6.41573C2.86001 6.36079 2.9241 6.2827 2.96194 6.19134C2.99978 6.09998 3.00969 5.99945 2.99039 5.90245C2.9711 5.80546 2.92348 5.71637 2.85355 5.64645C2.78363 5.57652 2.69454 5.5289 2.59755 5.50961C2.50055 5.49031 2.40002 5.50022 2.30866 5.53806C2.2173 5.5759 2.13921 5.63999 2.08427 5.72221C2.02932 5.80444 2 5.90111 2 6C2 6.13261 2.05268 6.25979 2.14645 6.35355C2.24021 6.44732 2.36739 6.5 2.5 6.5ZM8.5 1.5H8V1C8 0.867392 7.94732 0.740215 7.85355 0.646447C7.75979 0.552678 7.63261 0.5 7.5 0.5C7.36739 0.5 7.24021 0.552678 7.14645 0.646447C7.05268 0.740215 7 0.867392 7 1V1.5H3V1C3 0.867392 2.94732 0.740215 2.85355 0.646447C2.75979 0.552678 2.63261 0.5 2.5 0.5C2.36739 0.5 2.24021 0.552678 2.14645 0.646447C2.05268 0.740215 2 0.867392 2 1V1.5H1.5C1.10218 1.5 0.720644 1.65804 0.43934 1.93934C0.158035 2.22064 0 2.60218 0 3V9C0 9.39782 0.158035 9.77936 0.43934 10.0607C0.720644 10.342 1.10218 10.5 1.5 10.5H8.5C8.89782 10.5 9.27936 10.342 9.56066 10.0607C9.84196 9.77936 10 9.39782 10 9V3C10 2.60218 9.84196 2.22064 9.56066 1.93934C9.27936 1.65804 8.89782 1.5 8.5 1.5V1.5ZM9 9C9 9.13261 8.94732 9.25979 8.85355 9.35355C8.75979 9.44732 8.63261 9.5 8.5 9.5H1.5C1.36739 9.5 1.24021 9.44732 1.14645 9.35355C1.05268 9.25979 1 9.13261 1 9V4.5H9V9ZM9 3.5H1V3C1 2.86739 1.05268 2.74021 1.14645 2.64645C1.24021 2.55268 1.36739 2.5 1.5 2.5H8.5C8.63261 2.5 8.75979 2.55268 8.85355 2.64645C8.94732 2.74021 9 2.86739 9 3V3.5ZM2.5 8.5C2.59889 8.5 2.69556 8.47068 2.77779 8.41574C2.86001 8.36079 2.9241 8.2827 2.96194 8.19134C2.99978 8.09998 3.00969 7.99944 2.99039 7.90245C2.9711 7.80546 2.92348 7.71637 2.85355 7.64645C2.78363 7.57652 2.69454 7.5289 2.59755 7.50961C2.50055 7.49031 2.40002 7.50022 2.30866 7.53806C2.2173 7.5759 2.13921 7.63999 2.08427 7.72221C2.02932 7.80444 2 7.90111 2 8C2 8.13261 2.05268 8.25979 2.14645 8.35355C2.24021 8.44732 2.36739 8.5 2.5 8.5Z" fill="#4FBDBA"/>
</svg>
