<svg width="24" height="23" viewBox="0 0 24 23" fill="none" xmlns="http://www.w3.org/2000/svg">
<path d="M18.4873 22.6266C18.2631 22.626 18.0396 22.6014 17.8206 22.5533C13.6517 21.6909 9.81105 19.6689 6.74064 16.72C3.73575 13.7646 1.6517 10.0017 0.740638 5.88664C0.633212 5.37378 0.659579 4.8419 0.817201 4.34218C0.974823 3.84246 1.2584 3.39172 1.64064 3.03331L4.3073 0.46664C4.44351 0.337832 4.60534 0.239193 4.78225 0.177161C4.95915 0.11513 5.14715 0.0910999 5.33397 0.10664C5.52768 0.126849 5.71461 0.189249 5.88162 0.289452C6.04862 0.389656 6.19165 0.52523 6.30064 0.68664L9.63397 5.61331C9.75897 5.80447 9.81931 6.03071 9.80611 6.25873C9.79291 6.48675 9.70687 6.70451 9.56064 6.87997L7.8873 8.87997C8.55374 10.3549 9.49753 11.688 10.6673 12.8066C11.8295 13.9658 13.2032 14.8914 14.714 15.5333L16.7873 13.8866C16.9614 13.749 17.1733 13.6677 17.3948 13.6534C17.6163 13.6391 17.8369 13.6925 18.0273 13.8066L23.0606 17.06C23.2334 17.1631 23.3805 17.304 23.4911 17.4721C23.6016 17.6401 23.6727 17.8311 23.699 18.0305C23.7253 18.2299 23.7061 18.4328 23.6429 18.6237C23.5797 18.8147 23.4741 18.9889 23.334 19.1333L20.734 21.7066C20.4386 22.0005 20.0881 22.2331 19.7025 22.391C19.3169 22.5489 18.9039 22.629 18.4873 22.6266ZM5.2273 1.42664L2.56064 3.99331C2.34561 4.19367 2.18643 4.44656 2.09876 4.7271C2.01109 5.00763 1.99796 5.30615 2.06064 5.59331C2.90779 9.45473 4.85512 12.9882 7.6673 15.7666C10.5568 18.541 14.171 20.4429 18.094 21.2533C18.3909 21.3154 18.6986 21.3028 18.9895 21.2167C19.2804 21.1306 19.5453 20.9737 19.7606 20.76L22.3606 18.1866L17.5006 15.0466L15.274 16.82C15.1887 16.8874 15.0883 16.933 14.9814 16.9528C14.8745 16.9725 14.7644 16.9659 14.6606 16.9333C12.8118 16.2521 11.1363 15.1708 9.75397 13.7666C8.32421 12.4314 7.21439 10.7906 6.5073 8.96664C6.47739 8.85622 6.4764 8.73995 6.50442 8.62903C6.53244 8.51812 6.58853 8.41627 6.6673 8.33331L8.4673 6.17997L5.2273 1.42664Z" fill="#4FBDBA"/>
</svg>
