<svg width="24" height="24" viewBox="0 0 24 24" fill="none" xmlns="http://www.w3.org/2000/svg">
<path d="M22.5805 5.54673L18.6672 1.61339C18.4086 1.3561 18.0586 1.21167 17.6939 1.21167C17.3291 1.21167 16.9791 1.3561 16.7205 1.61339L2.84719 15.4667L1.58053 20.9334C1.53683 21.1332 1.53833 21.3403 1.58491 21.5395C1.63149 21.7387 1.72198 21.9249 1.84977 22.0847C1.97755 22.2444 2.13941 22.3736 2.32351 22.4627C2.50761 22.5519 2.70931 22.5988 2.91386 22.6001C3.00917 22.6097 3.10521 22.6097 3.20053 22.6001L8.72719 21.3334L22.5805 7.49339C22.8378 7.2348 22.9823 6.88485 22.9823 6.52006C22.9823 6.15527 22.8378 5.80532 22.5805 5.54673ZM8.06053 20.1334L2.88053 21.2201L4.06053 16.1401L14.4405 5.80006L18.4405 9.80006L8.06053 20.1334ZM19.3339 8.8334L15.3339 4.83339L17.6539 2.52673L21.5872 6.52673L19.3339 8.8334Z" fill="#4FBDBA"/>
</svg>
