<svg width="20" height="15" viewBox="0 0 20 15" fill="none" xmlns="http://www.w3.org/2000/svg">
<path d="M11.9282 13C12.0987 13 12.2622 13.0677 12.3828 13.1883C12.5033 13.3088 12.5711 13.4723 12.5711 13.6428C12.5711 13.8133 12.5033 13.9768 12.3828 14.0974C12.2622 14.218 12.0987 14.2857 11.9282 14.2857H1.21391C1.04341 14.2857 0.879898 14.218 0.759339 14.0974C0.63878 13.9768 0.57105 13.8133 0.57105 13.6428C0.57105 13.4723 0.63878 13.3088 0.759339 13.1883C0.879898 13.0677 1.04341 13 1.21391 13H11.9282ZM18.7836 6.56968C18.9541 6.56968 19.1176 6.63741 19.2382 6.75797C19.3587 6.87853 19.4265 7.04204 19.4265 7.21254C19.4265 7.38303 19.3587 7.54655 19.2382 7.66711C19.1176 7.78766 18.9541 7.85539 18.7836 7.85539H1.21219C1.0417 7.85539 0.878184 7.78766 0.757625 7.66711C0.637065 7.54655 0.569336 7.38303 0.569336 7.21254C0.569336 7.04204 0.637065 6.87853 0.757625 6.75797C0.878184 6.63741 1.0417 6.56968 1.21219 6.56968H18.7836ZM15.3568 0.142822C15.5273 0.142822 15.6908 0.210552 15.8113 0.331111C15.9319 0.45167 15.9996 0.615183 15.9996 0.785679C15.9996 0.956176 15.9319 1.11969 15.8113 1.24025C15.6908 1.36081 15.5273 1.42854 15.3568 1.42854H1.21391C1.04341 1.42854 0.879898 1.36081 0.759339 1.24025C0.63878 1.11969 0.57105 0.956176 0.57105 0.785679C0.57105 0.615183 0.63878 0.45167 0.759339 0.331111C0.879898 0.210552 1.04341 0.142822 1.21391 0.142822H15.3568Z" fill="#4FBDBA"/>
</svg>
