<svg width="24" height="24" viewBox="0 0 24 24" fill="none" xmlns="http://www.w3.org/2000/svg">
<path d="M3 12L5 10M5 10L12 3L19 10M5 10V20C5 20.2652 5.10536 20.5196 5.29289 20.7071C5.48043 20.8946 5.73478 21 6 21H5M5 10V16V21M19 10L21 12M19 10V20C19 20.2652 18.8946 20.5196 18.7071 20.7071C18.5196 20.8946 18.2652 21 18 21H17H14M19 10V15V21H14M5 21C5.26522 21 9.81246 21.1875 10 21M5 21H10M14 21C14.0973 20.7071 14 20.2652 14 20V16C14 15.7348 13.8946 15.4804 13.7071 15.2929C13.5196 15.1054 13.2652 15 13 15H11C10.7348 15 10.4804 15.1054 10.2929 15.2929C10.1054 15.4804 10 15.7348 10 16V20C10 20.2652 10 20.7071 10 21M14 21C14.5 21 18 21 14 21ZM14 21V15H10V21" stroke="#AFAFAF" stroke-width="2" stroke-linecap="round" stroke-linejoin="round"/>
</svg>
