<svg width="50" height="50" viewBox="0 0 50 50" fill="none" xmlns="http://www.w3.org/2000/svg">
<circle cx="25" cy="25" r="25" fill="#4FBDBA"/>
<path d="M32.833 21.3333H26.9872L28.157 17.826C28.3674 17.1926 28.2611 16.4905 27.8705 15.9489C27.4799 15.4072 26.8465 15.0833 26.1788 15.0833H24.4997C24.1903 15.0833 23.8976 15.2208 23.6986 15.4583L18.8028 21.3333H16.1663C15.0174 21.3333 14.083 22.2676 14.083 23.4166V32.7916C14.083 33.9405 15.0174 34.8749 16.1663 34.8749H30.0278C30.4516 34.8735 30.8651 34.7435 31.2134 34.5021C31.5618 34.2607 31.8287 33.9192 31.9788 33.5228L34.8507 25.8655C34.8943 25.7486 34.9165 25.6247 34.9163 25.4999V23.4166C34.9163 22.2676 33.982 21.3333 32.833 21.3333ZM16.1663 23.4166H18.2497V32.7916H16.1663V23.4166ZM32.833 25.3114L30.0278 32.7916H20.333V22.752L24.9872 17.1666H26.1809L24.5538 22.0447C24.501 22.2013 24.4863 22.3682 24.5109 22.5316C24.5354 22.695 24.5986 22.8502 24.6952 22.9843C24.7917 23.1185 24.9188 23.2276 25.066 23.3028C25.2131 23.378 25.3761 23.417 25.5413 23.4166H32.833V25.3114Z" fill="#FCFCFC"/>
</svg>
