<svg width="24" height="25" viewBox="0 0 24 25" fill="none" xmlns="http://www.w3.org/2000/svg">
<path d="M15.5 11.9999C15.5 13.9999 13 15.4999 13 16.9999H11C11 15.4999 8.5 13.9999 8.5 11.9999C8.5 10.0699 10.07 8.49993 12 8.49993C13.93 8.49993 15.5 10.0699 15.5 11.9999ZM13 17.9999H11V19.4999H13V17.9999ZM22 12.4999C22 9.73993 20.88 7.23993 19.07 5.42993L18.01 6.48993C19.55 8.02993 20.5 10.1599 20.5 12.4999C20.5 14.8399 19.55 16.9699 18.01 18.5099L19.07 19.5699C20.88 17.7599 22 15.2599 22 12.4999ZM3.5 12.4999C3.5 10.1599 4.45 8.02993 5.99 6.48993L4.93 5.42993C3.12 7.23993 2 9.73993 2 12.4999C2 15.2599 3.12 17.7599 4.93 19.5699L5.99 18.5099C4.45 16.9699 3.5 14.8399 3.5 12.4999ZM17.5 12.4999C17.5 14.0199 16.88 15.3899 15.89 16.3899L16.95 17.4499C18.22 16.1799 19 14.4299 19 12.4999C19 10.5699 18.22 8.81993 16.95 7.54993L15.89 8.60993C16.88 9.60993 17.5 10.9799 17.5 12.4999ZM7.05 17.4499L8.11 16.3899C7.11 15.3899 6.5 14.0199 6.5 12.4999C6.5 10.9799 7.12 9.60993 8.11 8.60993L7.05 7.54993C5.78 8.81993 5 10.5699 5 12.4999C5 14.4299 5.78 16.1799 7.05 17.4499Z" fill="#4FBDBA"/>
</svg>
