<svg width="20" height="15" viewBox="0 0 20 15" fill="none" xmlns="http://www.w3.org/2000/svg">
<path d="M13.5 6.99993C13.5 8.99993 11 10.4999 11 11.9999H9C9 10.4999 6.5 8.99993 6.5 6.99993C6.5 5.06993 8.07 3.49993 10 3.49993C11.93 3.49993 13.5 5.06993 13.5 6.99993ZM11 12.9999H9V14.4999H11V12.9999ZM20 7.49993C20 4.73993 18.88 2.23993 17.07 0.429932L16.01 1.48993C17.55 3.02993 18.5 5.15993 18.5 7.49993C18.5 9.83993 17.55 11.9699 16.01 13.5099L17.07 14.5699C18.88 12.7599 20 10.2599 20 7.49993ZM1.5 7.49993C1.5 5.15993 2.45 3.02993 3.99 1.48993L2.93 0.429932C1.12 2.23993 0 4.73993 0 7.49993C0 10.2599 1.12 12.7599 2.93 14.5699L3.99 13.5099C2.45 11.9699 1.5 9.83993 1.5 7.49993ZM15.5 7.49993C15.5 9.01993 14.88 10.3899 13.89 11.3899L14.95 12.4499C16.22 11.1799 17 9.42993 17 7.49993C17 5.56993 16.22 3.81993 14.95 2.54993L13.89 3.60993C14.88 4.60993 15.5 5.97993 15.5 7.49993ZM5.05 12.4499L6.11 11.3899C5.11 10.3899 4.5 9.01993 4.5 7.49993C4.5 5.97993 5.12 4.60993 6.11 3.60993L5.05 2.54993C3.78 3.81993 3 5.56993 3 7.49993C3 9.42993 3.78 11.1799 5.05 12.4499Z" fill="#4FBDBA"/>
</svg>
