<svg width="11" height="8" viewBox="0 0 11 8" fill="none" xmlns="http://www.w3.org/2000/svg">
<path d="M2.17127 0.468909C2.21776 0.515346 2.25464 0.57049 2.2798 0.631189C2.30497 0.691888 2.31792 0.756951 2.31792 0.822659C2.31792 0.888367 2.30497 0.95343 2.2798 1.01413C2.25464 1.07483 2.21776 1.12997 2.17127 1.17641C1.42099 1.92682 0.999499 2.94451 0.999499 4.00566C0.999499 5.06681 1.42099 6.0845 2.17127 6.83491C2.2177 6.88136 2.25451 6.93651 2.27962 6.99719C2.30474 7.05788 2.31765 7.12291 2.31762 7.18859C2.3176 7.25426 2.30464 7.31929 2.27949 7.37995C2.25434 7.44062 2.21748 7.49574 2.17102 7.54216C2.12457 7.58858 2.06942 7.6254 2.00874 7.65051C1.94806 7.67562 1.88302 7.68853 1.81735 7.68851C1.75167 7.68849 1.68665 7.67553 1.62598 7.65037C1.56531 7.62522 1.5102 7.58836 1.46377 7.54191C-0.489227 5.58891 -0.489227 2.42191 1.46377 0.468909C1.51021 0.422421 1.56535 0.385541 1.62605 0.360379C1.68675 0.335217 1.75182 0.322266 1.81752 0.322266C1.88323 0.322266 1.94829 0.335217 2.00899 0.360379C2.06969 0.385541 2.12484 0.422421 2.17127 0.468909ZM8.53677 0.468909C10.4898 2.42241 10.4898 5.58891 8.53677 7.54191C8.44247 7.63299 8.31617 7.68338 8.18507 7.68225C8.05397 7.68111 7.92857 7.62852 7.83586 7.53582C7.74316 7.44311 7.69058 7.31771 7.68944 7.18661C7.6883 7.05551 7.73869 6.92921 7.82977 6.83491C8.58006 6.0845 9.00155 5.06681 9.00155 4.00566C9.00155 2.94451 8.58006 1.92682 7.82977 1.17641C7.73595 1.08265 7.68322 0.955471 7.68317 0.822836C7.68313 0.690201 7.73577 0.562979 7.82952 0.469159C7.92328 0.375339 8.05046 0.322605 8.1831 0.322558C8.31573 0.322511 8.44295 0.375155 8.53677 0.468909ZM3.65477 1.90591C3.74851 1.99967 3.80117 2.12683 3.80117 2.25941C3.80117 2.39199 3.74851 2.51915 3.65477 2.61291C3.47275 2.79491 3.32836 3.01099 3.22985 3.2488C3.13134 3.48661 3.08063 3.7415 3.08063 3.99891C3.08063 4.25632 3.13134 4.5112 3.22985 4.74901C3.32836 4.98683 3.47275 5.2029 3.65477 5.38491C3.70253 5.43103 3.74062 5.48621 3.76682 5.54721C3.79303 5.60821 3.80682 5.67382 3.8074 5.74021C3.80798 5.8066 3.79533 5.87244 3.77018 5.93389C3.74504 5.99533 3.70792 6.05116 3.66097 6.09811C3.61402 6.14505 3.5582 6.18218 3.49675 6.20732C3.4353 6.23246 3.36946 6.24511 3.30307 6.24453C3.23668 6.24396 3.17107 6.23016 3.11007 6.20396C3.04907 6.17776 2.9939 6.13966 2.94777 6.09191C2.39269 5.5368 2.08085 4.78393 2.08085 3.99891C2.08085 3.21389 2.39269 2.46101 2.94777 1.90591C3.04154 1.81217 3.16869 1.75952 3.30127 1.75952C3.43386 1.75952 3.56101 1.81217 3.65477 1.90591ZM7.13427 1.90591C7.68936 2.46101 8.0012 3.21389 8.0012 3.99891C8.0012 4.78393 7.68936 5.5368 7.13427 6.09191C7.08785 6.13836 7.03273 6.17522 6.97207 6.20037C6.9114 6.22553 6.84637 6.23849 6.7807 6.23851C6.71503 6.23853 6.64999 6.22562 6.58931 6.20051C6.52862 6.1754 6.47348 6.13858 6.42702 6.09216C6.38057 6.04574 6.34371 5.99062 6.31856 5.92995C6.2934 5.86929 6.28045 5.80426 6.28042 5.73859C6.2804 5.67291 6.29331 5.60788 6.31842 5.54719C6.34353 5.48651 6.38035 5.43136 6.42677 5.38491C6.6088 5.2029 6.75319 4.98683 6.8517 4.74901C6.95021 4.5112 7.00092 4.25632 7.00092 3.99891C7.00092 3.7415 6.95021 3.48661 6.8517 3.2488C6.75319 3.01099 6.6088 2.79491 6.42677 2.61291C6.33302 2.51909 6.28038 2.39187 6.28042 2.25923C6.28047 2.1266 6.3332 1.99941 6.42702 1.90566C6.52084 1.8119 6.64807 1.75926 6.7807 1.75931C6.91334 1.75935 7.04052 1.81209 7.13427 1.90591ZM5.04077 3.29091C5.13926 3.29091 5.23679 3.31031 5.32779 3.348C5.41878 3.38569 5.50146 3.44093 5.5711 3.51058C5.64075 3.58022 5.69599 3.6629 5.73368 3.7539C5.77137 3.84489 5.79077 3.94242 5.79077 4.04091C5.79077 4.1394 5.77137 4.23693 5.73368 4.32792C5.69599 4.41892 5.64075 4.5016 5.5711 4.57124C5.50146 4.64088 5.41878 4.69613 5.32779 4.73382C5.23679 4.77151 5.13926 4.79091 5.04077 4.79091C4.84186 4.79091 4.6511 4.71189 4.51044 4.57124C4.36979 4.43059 4.29077 4.23982 4.29077 4.04091C4.29077 3.842 4.36979 3.65123 4.51044 3.51058C4.6511 3.36993 4.84186 3.29091 5.04077 3.29091Z" fill="#4FBDBA"/>
</svg>
